<?xml version="1.0" encoding="UTF-8"?>
<svg xmlns="http://www.w3.org/2000/svg" xmlns:xlink="http://www.w3.org/1999/xlink" width="160px" height="160px" viewBox="0 0 160 160" version="1.1">
<defs>
<linearGradient id="linear0" gradientUnits="userSpaceOnUse" x1="0.5" y1="0" x2="0.5" y2="1" gradientTransform="matrix(160,0,0,160,0,0)">
<stop offset="0" style="stop-color:rgb(21.960784%,68.235294%,92.156863%);stop-opacity:1;"/>
<stop offset="1" style="stop-color:rgb(15.294118%,60.392157%,81.960784%);stop-opacity:1;"/>
</linearGradient>
</defs>
<g id="surface1">
<path style=" stroke:none;fill-rule:evenodd;fill:url(#linear0);" d="M 160 80 C 160 35.816406 124.183594 0 80 0 C 35.816406 0 0 35.816406 0 80 C 0 124.183594 35.816406 160 80 160 C 124.183594 160 160 124.183594 160 80 Z M 160 80 "/>
<path style=" stroke:none;fill-rule:evenodd;fill:rgb(100%,100%,100%);fill-opacity:1;" d="M 31.703125 78.363281 C 57.875 67.425781 75.328125 60.214844 84.058594 56.734375 C 108.992188 46.785156 112.453125 45.34375 115.832031 45.285156 C 116.574219 45.273438 118.386719 45.578125 119.796875 46.765625 C 121.210938 47.953125 121.636719 48.71875 121.753906 49.390625 C 121.875 50.0625 121.863281 52.144531 121.746094 53.339844 C 120.394531 66.953125 115.257812 98.382812 112.285156 113.632812 C 111.027344 120.085938 108.546875 122.25 106.148438 122.460938 C 100.9375 122.921875 96.976562 119.15625 91.925781 115.980469 C 84.027344 111.015625 81.390625 109.179688 73.722656 104.332031 C 64.855469 98.730469 68.507812 96.785156 73.558594 91.753906 C 74.882812 90.433594 96.78125 70.460938 97.109375 68.625 C 97.390625 67.027344 97.496094 66.820312 96.765625 66.097656 C 96.039062 65.375 95.167969 65.464844 94.609375 65.585938 C 93.816406 65.761719 81.753906 73.394531 58.417969 88.496094 C 54.835938 90.855469 51.589844 92.003906 48.679688 91.945312 C 45.476562 91.878906 39.308594 90.207031 34.726562 88.777344 C 29.101562 87.023438 24.632812 86.097656 25.023438 83.121094 C 25.226562 81.570312 27.453125 79.984375 31.703125 78.363281 Z M 31.703125 78.363281 "/>
</g>
</svg>
